<svg xmlns="http://www.w3.org/2000/svg" xmlns:xlink="http://www.w3.org/1999/xlink" version="1.1" x="0px" y="0px" viewBox="0 0 100 125" enable-background="new 0 0 100 100" xml:space="preserve"><circle cx="81.1" cy="8.2" r="8.1"/><circle cx="8.5" cy="19.6" r="8.1"/><path d="M90.1,18c0,0-18.2,0-18.5,0c-5.1,0.4-7.2,4.6-7.9,7.1c0,0-10,25.1-10,25.1c-1.4,4.9,4.9,6.8,6.4,2.2l9.3-23.1H71l0,65.9  c0,2.5,2,4.6,4.6,4.6c2.5,0,4.6-2,4.6-4.6l0-38.3h2l0,38.3c0,2.5,2,4.6,4.6,4.6c2.5,0,4.6-2,4.6-4.6l0-66h2v25.9  c0,4.9,6.8,5,6.8,0.1V29.1C100,23.7,96.4,18,90.1,18z"/><path d="M60,72c0,0-5.2-19.5-10.1-25.3l-20.8-20c-3.2-3.1-9.5-4-11.7-1.7c-2.9,3-8.7,9.1-8.8,9.2c-3.2,3.9-1.7,8.4-0.4,10.6  c0,0,11.1,24.6,11.1,24.6c2.6,4.5,8.3,1.2,6-3.1L15,43.7l1.1-1.2l13,12.5l-2.6,21l4.8-0.6l0,20.1c0,2.5,2,4.6,4.6,4.6  c2.5,0,4.6-2,4.6-4.6l0-21.1l2-0.2l0,21.4c0,2.5,2,4.6,4.6,4.6c2.5,0,4.6-2,4.6-4.6l0-22.4L60,72z"/><text x="0" y="115" fill="#000000" font-size="5px" font-weight="bold" font-family="'Helvetica Neue', Helvetica, Arial-Unicode, Arial, Sans-serif">Created by Maurizio Fusillo</text><text x="0" y="120" fill="#000000" font-size="5px" font-weight="bold" font-family="'Helvetica Neue', Helvetica, Arial-Unicode, Arial, Sans-serif">from the Noun Project</text></svg>