<svg xmlns="http://www.w3.org/2000/svg" xmlns:xlink="http://www.w3.org/1999/xlink" version="1.1" x="0px" y="0px" viewBox="0 0 100 125" style="enable-background:new 0 0 100 100;" xml:space="preserve"><circle cx="84.1975403" cy="21.5042229" r="8.6298819"/><path d="M84.6670074,31.2796345h-8.0317307c-2.5722809,0-5.1079102-0.6098518-7.3988647-1.7795181l-16.8589859-8.6075039  c-1.4938164-0.762682-3.2627945-0.7626495-4.7565842,0.0000877l-16.8563919,8.6069775  c-2.2913036,1.1699524-4.8273582,1.7799568-7.400074,1.7799568h-8.0314417c-5.9839468,0-10.7166243,5.0673695-10.3083696,11.0373745  l3.112278,45.5116348c0.0957527,1.4002075,1.2595024,2.4870911,2.6629829,2.4870911h10.024416  c1.4034386,0,2.5671539-1.0868454,2.6629066-2.4870148l3.1241875-45.6841164  c0.087328-1.2778702,0.8327503-2.4183846,1.9679966-3.0113297L48.7063217,27.239872  c0.7980385-0.4715767,1.7894554-0.4715748,2.5874939,0.0000038l20.1268539,11.8933983  c1.1352463,0.5929451,1.8805313,1.7334595,1.9679947,3.0113297l3.1241837,45.6840401  c0.0957565,1.4002075,1.2595062,2.4870911,2.6629944,2.4870911h10.0243378c1.4034805,0,2.5672302-1.0868835,2.6629791-2.4870911  l3.1122742-45.5115776C95.3836899,36.3470306,90.6509933,31.2796345,84.6670074,31.2796345z"/><circle cx="15.8023634" cy="21.5042229" r="8.6298819"/><text x="0" y="115" fill="#000000" font-size="5px" font-weight="bold" font-family="'Helvetica Neue', Helvetica, Arial-Unicode, Arial, Sans-serif">Created by Universal Icons</text><text x="0" y="120" fill="#000000" font-size="5px" font-weight="bold" font-family="'Helvetica Neue', Helvetica, Arial-Unicode, Arial, Sans-serif">from the Noun Project</text></svg>