<svg xmlns="http://www.w3.org/2000/svg" xmlns:xlink="http://www.w3.org/1999/xlink" version="1.1" x="0px" y="0px" viewBox="0 0 90 112.5" enable-background="new 0 0 90 90" xml:space="preserve"><path d="M90.241,38.669C90.215,34.5,80.316,33,80.316,33H45.352h-0.107H10.23c0,0-9.897,1.499-9.924,5.668  c-0.027,4.169-0.377,7.728,2.071,7.701c1.836-0.021,25.042-0.084,36.512-0.072l-4.869,1.598c0,0-1.076,0.15-1.542,1.091  c-0.466,0.94-0.502,2.464,0.144,3.863c0.646,1.398,1.076,2.598,2.224,2.813S45.28,56,45.28,56h0.084c0,0,9.289-0.129,10.436-0.344  c1.147-0.216,1.578-1.499,2.224-2.897s0.609-2.894,0.144-3.833c-0.467-0.941-1.542-1.093-1.542-1.093l-4.879-1.631  c11.486-0.011,34.591,0.141,36.425,0.16C90.618,46.39,90.269,42.838,90.241,38.669z M25.233,44.303  c-1.584,0-2.869-1.284-2.869-2.869c0-1.584,1.285-2.869,2.869-2.869s2.869,1.285,2.869,2.869  C28.102,43.019,26.818,44.303,25.233,44.303z M41.048,44.303c-1.584,0-2.869-1.284-2.869-2.869c0-1.584,1.285-2.869,2.869-2.869  s2.869,1.285,2.869,2.869C43.917,43.019,42.633,44.303,41.048,44.303z M49.117,44.303c-1.585,0-2.869-1.284-2.869-2.869  c0-1.584,1.284-2.869,2.869-2.869c1.584,0,2.869,1.285,2.869,2.869C51.986,43.019,50.701,44.303,49.117,44.303z"/><text x="0" y="105" fill="#000000" font-size="5px" font-weight="bold" font-family="'Helvetica Neue', Helvetica, Arial-Unicode, Arial, Sans-serif">Created by fcFrankChung</text><text x="0" y="110" fill="#000000" font-size="5px" font-weight="bold" font-family="'Helvetica Neue', Helvetica, Arial-Unicode, Arial, Sans-serif">from the Noun Project</text></svg>