<svg xmlns="http://www.w3.org/2000/svg" xmlns:xlink="http://www.w3.org/1999/xlink" version="1.1" x="0px" y="0px" viewBox="0 0 100 125" style="enable-background:new 0 0 100 100;" xml:space="preserve"><path d="M38.8226776,94.9697266c-1.6299934,0-2.9815674-1.2623062-3.0927734-2.888504L33.429142,58.4369659l-1.4752483-21.5726967  c-0.0838642-1.2263603-1.7382469-1.5485458-2.2761898-0.4432831l-9.8879547,20.315834  c-0.5062237,1.0400925-1.5615616,1.7001457-2.7183056,1.7001457h-0.0000057c-2.1057158,0-3.5664206-2.0989075-2.8348703-4.0734634  l7.4566202-20.1264648c1.7438431-4.7068825,6.2330189-7.8310623,11.252552-7.8310623h23.6253395  c5.0353241,0,9.535099,3.1435719,11.2674599,7.8715134l3.4763412,9.4876328l3.8870697,10.6085739  c0.7228622,1.972847-0.7375183,4.0632706-2.8386307,4.0632706h-0.0166016c-1.1567459,0-2.2120819-0.6600533-2.7183075-1.7001457  l-9.8879509-20.315834c-0.5379448-1.1052628-2.1923294-0.7830772-2.2761917,0.4432831l-1.4752502,21.5726967l-2.3007584,33.6442566  c-0.1112099,1.6261978-1.4627838,2.888504-3.0927773,2.888504H38.8226776z"/><circle cx="44.7856255" cy="15.0529079" r="10.0226355"/><text x="0" y="115" fill="#000000" font-size="5px" font-weight="bold" font-family="'Helvetica Neue', Helvetica, Arial-Unicode, Arial, Sans-serif">Created by Universal Icons</text><text x="0" y="120" fill="#000000" font-size="5px" font-weight="bold" font-family="'Helvetica Neue', Helvetica, Arial-Unicode, Arial, Sans-serif">from the Noun Project</text></svg>