<svg xmlns="http://www.w3.org/2000/svg" xmlns:xlink="http://www.w3.org/1999/xlink" version="1.1" x="0px" y="0px" viewBox="0 0 100 125" style="enable-background:new 0 0 100 100;" xml:space="preserve"><circle cx="50.0256386" cy="15.0529079" r="10.0226355"/><path d="M55.8519211,94.9697266H44.2106056c-1.6299934,0-2.9815674-1.2623062-3.0927773-2.888504l-3.6205559-52.9437637  c-0.1070595-1.5655327-0.9803848-2.977169-2.3334846-3.7718201L10.1312189,20.6644325  c-1.5740767-0.9244289-2.1699643-2.9056244-1.3670063-4.5449982l0.0000038-0.0000057  c0.8578911-1.7515297,2.9846411-2.4601955,4.7216845-1.5733385l19.1808357,9.7928877  c2.6610756,1.3586273,5.6063461,2.0669975,8.5941849,2.0669975h17.566349c6.3750229,0,11.6373215,4.9847565,11.9824066,11.3504295  l0.9391327,17.323822c0.0988617,1.8237305-1.3532944,3.356739-3.1797028,3.356739h-0.0000076  c-1.6323395,0-3.0003433-1.2343216-3.1676025-2.8580742l-1.4917412-14.4815331  c-0.0940742-0.9132843-1.4319305-0.89011-1.4943161,0.0258865l-3.4706841,50.9571304  C58.8339691,93.7069321,57.4822426,94.9697266,55.8519211,94.9697266z"/><text x="0" y="115" fill="#000000" font-size="5px" font-weight="bold" font-family="'Helvetica Neue', Helvetica, Arial-Unicode, Arial, Sans-serif">Created by Universal Icons</text><text x="0" y="120" fill="#000000" font-size="5px" font-weight="bold" font-family="'Helvetica Neue', Helvetica, Arial-Unicode, Arial, Sans-serif">from the Noun Project</text></svg>