<svg xmlns:x="http://ns.adobe.com/Extensibility/1.0/" xmlns:i="http://ns.adobe.com/AdobeIllustrator/10.0/" xmlns:graph="http://ns.adobe.com/Graphs/1.0/" xmlns="http://www.w3.org/2000/svg" xmlns:xlink="http://www.w3.org/1999/xlink" xmlns:a="http://ns.adobe.com/AdobeSVGViewerExtensions/3.0/" version="1.1" x="0px" y="0px" viewBox="0 0 64 80" enable-background="new 0 0 64 64" xml:space="preserve"><g><g><path d="M52.17,10.792c-0.221-0.609-0.71-1.094-1.337-1.327l-5.689-2.146C44.859,7.207,44.548,7.15,44.22,7.15    c-0.868,0-1.677,0.419-2.185,1.06H38.8V7H25.57v4.41h4.53h4h4.7v-1.2h2.682c0.087,0.682,0.409,1.334,0.954,1.782l4.706,3.865    c0.424,0.344,0.924,0.525,1.444,0.525c0.791,0,1.511-0.426,1.931-1.143l1.472-2.554C52.326,12.096,52.392,11.405,52.17,10.792z"/><polygon points="34.1,13.41 30.1,13.41 30.1,29.89 16.7,57 21.32,57 30.1,38.2 30.1,57 34.1,57 34.1,38.2 42.88,57 47.5,57     34.1,29.89   "/></g></g><text x="0" y="79" fill="#000000" font-size="5px" font-weight="bold" font-family="'Helvetica Neue', Helvetica, Arial-Unicode, Arial, Sans-serif">Created by iconnect</text><text x="0" y="84" fill="#000000" font-size="5px" font-weight="bold" font-family="'Helvetica Neue', Helvetica, Arial-Unicode, Arial, Sans-serif">from the Noun Project</text></svg>