<svg xmlns="http://www.w3.org/2000/svg" xmlns:xlink="http://www.w3.org/1999/xlink" xml:space="preserve" version="1.1" style="shape-rendering:geometricPrecision;text-rendering:geometricPrecision;image-rendering:optimizeQuality;" viewBox="0 0 535.06 446.6375" x="0px" y="0px" fill-rule="evenodd" clip-rule="evenodd"><defs><style type="text/css">
   
    .fil0 {fill:black}
   
  </style></defs><g><path class="fil0" d="M62.03 0l410.99 0c3.82,0 6.93,3.11 6.93,6.93l0 270.14c0,3.82 -3.11,6.93 -6.93,6.93l-410.99 0c-3.81,0 -6.93,-3.11 -6.93,-6.93l0 -270.14c0,-3.82 3.12,-6.93 6.93,-6.93zm205.5 246.04c6.45,0 11.69,5.23 11.69,11.69 0,6.45 -5.24,11.68 -11.69,11.68 -6.46,0 -11.69,-5.23 -11.69,-11.68 0,-6.46 5.23,-11.69 11.69,-11.69zm-194.42 -228.03l388.83 0 0 212.77 -388.83 0 0 -212.77z"/><path class="fil0" d="M57.99 357.31l419.08 0c50.62,0 44.91,-14.08 57.99,-57.46l-195.86 0c-1.34,9.36 -9.43,16.61 -19.14,16.61l-105.06 0c-9.71,0 -17.81,-7.25 -19.14,-16.61l-195.86 0c13.07,43.38 7.36,57.46 57.99,57.46z"/></g><text x="0" y="372.31" fill="#000000" font-size="5px" font-weight="bold" font-family="'Helvetica Neue', Helvetica, Arial-Unicode, Arial, Sans-serif">Created by Whyyputra</text><text x="0" y="377.31" fill="#000000" font-size="5px" font-weight="bold" font-family="'Helvetica Neue', Helvetica, Arial-Unicode, Arial, Sans-serif">from the Noun Project</text></svg>