<svg xmlns="http://www.w3.org/2000/svg" xmlns:xlink="http://www.w3.org/1999/xlink" version="1.1" x="0px" y="0px" viewBox="0 0 32 40" enable-background="new 0 0 32 32" xml:space="preserve"><g display="none"><rect x="-164.73" y="-7.333" display="inline" fill="#000000" width="412.397" height="207"/></g><g display="none"><g display="inline"><g><g><rect x="1.937" y="19.031" fill="#000000" width="5.703" height="3.388"/></g><g><rect x="24.36" y="19.031" fill="#000000" width="5.703" height="3.388"/></g><g><path fill="#000000" d="M30.214,21.031H1.786C0.801,21.031,0,20.23,0,19.246v-6.753c0-0.985,0.801-1.787,1.786-1.787h28.428      c0.985,0,1.786,0.801,1.786,1.787v6.753C32,20.23,31.199,21.031,30.214,21.031z M2,19.031h28v-6.326H2V19.031z"/></g></g><g><ellipse fill="#000000" cx="16.549" cy="15.809" rx="5.253" ry="5.228"/><path fill="#000000" d="M16.549,22.037c-3.448,0-6.253-2.794-6.253-6.228s2.805-6.228,6.253-6.228     c3.447,0,6.252,2.793,6.252,6.228S19.996,22.037,16.549,22.037z M16.549,11.58c-2.345,0-4.253,1.896-4.253,4.228     s1.908,4.228,4.253,4.228s4.252-1.896,4.252-4.228C20.801,13.477,18.894,11.58,16.549,11.58z"/></g><g><ellipse fill="#000000" cx="16.549" cy="15.809" rx="1.972" ry="1.963"/><path fill="#000000" d="M16.549,18.771c-1.639,0-2.973-1.329-2.973-2.962c0-1.634,1.334-2.963,2.973-2.963     s2.972,1.329,2.972,2.963C19.521,17.441,18.188,18.771,16.549,18.771z M16.549,14.845c-0.536,0-0.973,0.432-0.973,0.963     s0.437,0.962,0.973,0.962s0.972-0.432,0.972-0.962C17.521,15.279,17.085,14.845,16.549,14.845z"/></g></g></g><g><g><ellipse cx="16.549" cy="15.808" rx="1.972" ry="1.963"/><path d="M1.786,21.031h0.151v1.388H7.64v-1.388h5.515c0.979,0.633,2.143,1.005,3.394,1.005c1.251,0,2.415-0.372,3.394-1.005h4.417    v1.388h5.703v-1.388h0.151c0.985,0,1.786-0.801,1.786-1.786v-6.753c0-0.986-0.801-1.787-1.786-1.787H20.123    c-1.014-0.707-2.245-1.125-3.574-1.125c-1.329,0-2.56,0.418-3.574,1.125H1.786C0.801,10.706,0,11.508,0,12.492v6.753    C0,20.23,0.801,21.031,1.786,21.031z M16.549,12.845c1.639,0,2.972,1.329,2.972,2.963c0,1.633-1.333,2.962-2.972,2.962    c-1.639,0-2.973-1.329-2.973-2.962C13.576,14.174,14.91,12.845,16.549,12.845z"/></g></g><text x="0" y="47" fill="#000000" font-size="5px" font-weight="bold" font-family="'Helvetica Neue', Helvetica, Arial-Unicode, Arial, Sans-serif">Created by Alfredo @ IconsAlfredo.com</text><text x="0" y="52" fill="#000000" font-size="5px" font-weight="bold" font-family="'Helvetica Neue', Helvetica, Arial-Unicode, Arial, Sans-serif">from the Noun Project</text></svg>